Coordinates
version=1
nRows=8
nColumns=63
inDegrees=yes

Units are S.I. units (second, meters, Newtons, ...)
If the header above contains a line with 'inDegrees', this indicates whether rotational values are in degrees (yes) or radians (no).

endheader
time	pelvis_tilt	pelvis_list	pelvis_rotation	pelvis_tx	pelvis_ty	pelvis_tz	hip_flexion_r	hip_adduction_r	hip_rotation_r	knee_angle_r	knee_angle_r_beta	ankle_angle_r	subtalar_angle_r	mtp_angle_r	hip_flexion_l	hip_adduction_l	hip_rotation_l	knee_angle_l	knee_angle_l_beta	ankle_angle_l	subtalar_angle_l	mtp_angle_l	L5_S1_Flex_Ext	L5_S1_Lat_Bending	L5_S1_axial_rotation	L4_L5_Flex_Ext	L4_L5_Lat_Bending	L4_L5_axial_rotation	L3_L4_Flex_Ext	L3_L4_Lat_Bending	L3_L4_axial_rotation	L2_L3_Flex_Ext	L2_L3_Lat_Bending	L2_L3_axial_rotation	L1_L2_Flex_Ext	L1_L2_Lat_Bending	L1_L2_axial_rotation	L1_T12_Flex_Ext	L1_T12_Lat_Bending	L1_T12_axial_rotation	Abs_r3	Abs_r2	Abs_r1	Abs_t1	Abs_t2	neck_flexion	neck_bending	neck_rotation	arm_flex_r	arm_add_r	arm_rot_r	elbow_flex_r	pro_sup_r	wrist_flex_r	wrist_dev_r	arm_flex_l	arm_add_l	arm_rot_l	elbow_flex_l	pro_sup_l	wrist_flex_l	wrist_dev_l
      4.61016949	      1.75659706	     16.74787553	     93.94543782	      0.18629428	      0.52419919	      1.04368726	     -7.24436313	      7.05067306	      0.81539098	     26.18043796	      0.45693484	     48.02614589	     -1.07181264	      0.00000000	    -10.69437274	     -0.96548909	      2.80045005	     21.73956309	      0.37942695	     50.86723786	     -1.74703401	      0.00000000	     -1.09632542	      0.42498947	      7.48741433	     -2.03598593	      0.56523599	      7.95537773	     -1.80115303	      1.03331939	      7.95537773	     -1.25299032	      1.03331939	      6.55148754	     -1.01804778	      0.86663852	      6.08352415	     -0.62644034	      0.65830868	      5.61556075	     -7.83094283	      4.80756585	     41.64275230	      0.00000000	      0.00000000	     12.22366032	     17.65560131	    -44.75414607	   -219.12270385	   -116.50783023	   -279.50007269	    144.72139259	     75.51622958	     -4.71639707	      6.17664105	    112.15621309	     43.12629314	    186.45519047	      0.03716196	      0.80418393	    -69.92843396	    -24.71155833
      4.62711864	      1.70853082	     16.58441603	     93.81890221	      0.18709750	      0.52429662	      1.04278426	     -7.12551310	      7.03910338	      1.06269322	     26.12455332	      0.45595947	     48.00707656	     -1.04395027	      0.00000000	    -10.60087830	     -0.97352734	      2.39290670	     21.72846276	      0.37923322	     50.96668590	     -1.39766404	      0.00000000	     -1.07052344	      0.40983081	      7.49594995	     -1.98806908	      0.54507498	      7.96444682	     -1.75876296	      0.99646263	      7.96444682	     -1.22350124	      0.99646263	      6.55895621	     -0.99408807	      0.83572699	      6.09045933	     -0.61169709	      0.63482793	      5.62196246	     -7.64664188	      4.63608810	     41.69022484	      0.00000000	      0.00000000	     11.72134476	     17.38932491	    -44.74881251	   -219.21522370	   -116.09690703	   -279.82370198	    145.39347581	     74.96057747	     -4.35367368	      7.21568602	    111.94114694	     42.62270777	    186.47022268	      0.03755475	      0.81183324	    -69.92729218	    -24.71210841
      4.64406780	      1.62897181	     16.39588256	     93.78441898	      0.18784152	      0.52441162	      1.04191768	     -7.00090044	      7.01696699	      1.29910232	     25.99146549	      0.45363665	     48.01170944	     -1.08119873	      0.00000000	    -10.55129176	     -1.00976338	      1.82568091	     21.60983480	      0.37716277	     50.97067958	     -0.84068900	      0.00000000	     -1.03873016	      0.39519319	      7.51461441	     -1.92902578	      0.52560694	      7.98427781	     -1.70652978	      0.96087271	      7.98427781	     -1.18716470	      0.96087271	      6.57528761	     -0.96456483	      0.80587795	      6.10562421	     -0.59353041	      0.61215425	      5.63596081	     -7.41954568	      4.47050437	     41.79403098	      0.00000000	      0.00000000	     11.52220900	     17.11946965	    -44.74315314	   -219.98382061	   -115.72956468	   -281.03675366	    145.89285794	     74.46954467	     -3.63317513	      9.16355548	    111.62979204	     41.92988618	    186.08340518	      0.03805616	      0.81055001	    -69.92591296	    -24.71399631
      4.66101695	      1.67257868	     16.20246869	     93.71537808	      0.18852036	      0.52447119	      1.04099435	     -6.88869792	      7.09135351	      1.45181337	     25.79740873	      0.45024972	     48.04205618	     -0.95806000	      0.00000000	    -10.49585529	     -1.18673463	      1.12322024	     21.51476789	      0.37550354	     50.98955380	     -0.26586340	      0.00000000	     -0.99547639	      0.39954097	      7.57267768	     -1.84869921	      0.53138949	      8.04597003	     -1.63546817	      0.97144391	      8.04597003	     -1.13772997	      0.97144391	      6.62609297	     -0.92439938	      0.81474394	      6.15280061	     -0.56881521	      0.61888896	      5.67950826	     -7.11058834	      4.51968735	     42.11696143	      0.00000000	      0.00000000	     11.74482839	     16.79932815	    -44.73762457	   -222.41925471	   -115.41639703	   -284.01045145	    145.84688155	     74.84965432	     -3.00591853	     10.80681593	    111.35816209	     41.15471692	    185.37485079	      0.03865230	      0.77418112	    -69.92447290	    -24.71037269
      4.67796610	      1.43191266	     15.85959401	     93.91583241	      0.18973270	      0.52431066	      1.03978533	     -6.67540747	      6.97017979	      1.51240438	     25.55566191	      0.44603044	     48.13402700	     -0.96742937	      0.00000000	    -10.39350752	     -1.07589414	      1.01338932	     21.22225765	      0.37039827	     50.78783982	     -0.19239514	      0.00000000	     -0.94180497	      0.35060220	      7.53643980	     -1.74902601	      0.46630092	      8.00746729	     -1.54729139	      0.85245418	      8.00746729	     -1.07638890	      0.85245418	      6.59438483	     -0.87456010	      0.71494800	      6.12335734	     -0.53814736	      0.54308280	      5.65232985	     -6.72721873	      3.96608217	     41.91541724	      0.00000000	      0.00000000	     12.05267606	     16.62539154	    -44.73116420	   -222.81625612	   -114.95448611	   -284.44648202	    144.90946652	     75.00753757	     -3.08510331	     11.02249355	    111.13292479	     40.05180245	    184.90171192	      0.03896406	      0.69750388	    -69.92328259	    -24.70610506
      4.69491525	      1.37538222	     15.57597725	     94.19726063	      0.18957261	      0.52380977	      1.03862273	     -6.39330854	      6.91109043	      1.16729652	     25.58819198	      0.44659820	     48.35722863	     -0.69590357	      0.00000000	    -10.31005815	     -1.19074328	      0.54485331	     20.99238829	      0.36638629	     50.84576083	      0.52481184	      0.00000000	     -0.88050371	      0.35906472	      7.63624139	     -1.63518345	      0.47755607	      8.11350648	     -1.44657955	      0.87302995	      8.11350648	     -1.00632770	      0.87302995	      6.68171122	     -0.81763575	      0.73220477	      6.20444613	     -0.50311982	      0.55619125	      5.72718104	     -6.28934998	      4.06181189	     42.47048375	      0.00000000	      0.00000000	     12.62637040	     16.01200035	    -44.73162319	   -228.92453940	   -115.32696816	   -291.11261350	    143.70352627	     76.43874395	     -3.81611615	     11.08934945	    111.11305098	     39.26811435	    183.03475583	      0.03940031	      0.69365830	    -69.92264556	    -24.70776304
      4.71186441	      0.67785328	     15.09742973	     94.78313357	      0.19132512	      0.52284723	      1.03689986	     -5.96669885	      6.45109159	      1.08593467	     25.72216379	      0.44893645	     48.65496577	     -1.07953117	      0.00000000	    -10.15442963	     -0.73565764	      0.63418025	     20.56469747	      0.35892168	     50.69218460	      0.93089656	      0.00000000	     -0.83830895	      0.24909856	      7.56268032	     -1.55682354	      0.33130109	      8.03534784	     -1.37725777	      0.60565824	      8.03534784	     -0.95810329	      0.60565824	      6.61734528	     -0.77845369	      0.50796179	      6.14467776	     -0.47900973	      0.38585367	      5.67201024	     -5.98795697	      2.81785276	     42.06135916	      0.00000000	      0.00000000	     12.87430823	     16.00653709	    -44.72275128	   -229.52244392	   -115.25178937	   -292.17900668	    141.94104053	     75.70275550	     -4.20702677	     10.65773772	    111.26772879	     37.74536320	    181.76781677	      0.03967398	      0.65744277	    -69.92253799	    -24.70675115
      4.72881356	      0.12806848	     14.45831702	     95.12625629	      0.19325728	      0.52126239	      1.03462446	     -5.43269023	      6.11447772	      1.24619682	     25.86040371	      0.45134919	     48.90823804	     -1.59986824	      0.00000000	     -9.81390274	     -0.42994871	      0.23059742	     20.25202586	      0.35346453	     50.74538053	      1.81539173	      0.00000000	     -0.76946351	      0.16688523	      7.61483012	     -1.42897068	      0.22195736	      8.09075700	     -1.26415160	      0.40576476	      8.09075700	     -0.87941984	      0.40576476	      6.66297635	     -0.71452381	      0.34031237	      6.18704947	     -0.43967145	      0.25850523	      5.71112259	     -5.49620089	      1.88783914	     42.35140068	      0.00000000	      0.00000000	     12.99511853	     15.64936359	    -44.71448388	   -233.47761890	   -116.18776532	   -296.54976818	    140.11192464	     69.43437478	     -5.17691688	      8.12969382	    111.60976641	     36.00207731	    180.32809775	      0.03970889	      0.64310148	    -69.92288463	    -24.70377540
